<?xml version="1.0" encoding="utf-8"?>
<!-- Generator: Adobe Illustrator 21.0.0, SVG Export Plug-In . SVG Version: 6.00 Build 0)  -->
<svg version="1.1" id="visual" xmlns="http://www.w3.org/2000/svg" xmlns:xlink="http://www.w3.org/1999/xlink" x="0px" y="0px"
	 viewBox="0 0 900 450" style="enable-background:new 0 0 900 450;" xml:space="preserve">
<style type="text/css">
	.st0{fill:#DDDDDD;}
	.st1{fill:#7FDBB4;}
	.st2{fill:#42C8C3;}
	.st3{fill:#00B1CC;}
	.st4{fill:#0097CD;}
	.st5{fill:#3E7AC1;}
	.st6{fill:#282828;}
	.st7{font-family:'InterDisplay-Bold';}
	.st8{font-size:60px;}
</style>
<rect class="st0" width="900" height="450"/>
<path class="st1" d="M0,341l16.7-4.3c16.6-4.4,50-13,83.3-16.5s66.7-1.9,100-8.4s66.7-21.1,100-20c33.3,1.2,66.7,18.2,100,27.9
	c33.3,9.6,66.7,12,100,2.5s66.7-30.9,100-28c33.3,2.8,66.7,29.8,100,40.8s66.7,6,100-0.5s66.7-14.5,83.3-18.5l16.7-4v139h-16.7
	c-16.6,0-50,0-83.3,0s-66.7,0-100,0s-66.7,0-100,0s-66.7,0-100,0s-66.7,0-100,0s-66.7,0-100,0s-66.7,0-100,0s-66.7,0-100,0
	s-66.7,0-83.3,0H0V341z"/>
<path class="st2" d="M0,303l16.7-1.8c16.6-1.9,50-5.5,83.3-2.9c33.3,2.7,66.7,11.7,100,12.9c33.3,1.1,66.7-5.5,100-4.2
	s66.7,10.7,100,23.3c33.3,12.7,66.7,28.7,100,36.5c33.3,7.9,66.7,7.5,100,2s66.7-16.1,100-29.6s66.7-29.9,100-38.2
	s66.7-8.7,83.3-8.8L900,292v159h-16.7c-16.6,0-50,0-83.3,0s-66.7,0-100,0s-66.7,0-100,0s-66.7,0-100,0s-66.7,0-100,0s-66.7,0-100,0
	s-66.7,0-100,0s-66.7,0-100,0s-66.7,0-83.3,0H0V303z"/>
<path class="st3" d="M0,376l16.7-7.7c16.6-7.6,50-23,83.3-29.6c33.3-6.7,66.7-4.7,100-0.4c33.3,4.4,66.7,11,100,17.5
	s66.7,12.9,100,16.5c33.3,3.7,66.7,4.7,100-2.3s66.7-22,100-20.3c33.3,1.6,66.7,20,100,20.5s66.7-16.9,100-20.2s66.7,7.3,83.3,12.7
	L900,368v83h-16.7c-16.6,0-50,0-83.3,0s-66.7,0-100,0s-66.7,0-100,0s-66.7,0-100,0s-66.7,0-100,0s-66.7,0-100,0s-66.7,0-100,0
	s-66.7,0-100,0s-66.7,0-83.3,0H0V376z"/>
<path class="st4" d="M0,410l16.7-0.8c16.6-0.9,50-2.5,83.3-10.5s66.7-22.4,100-25.9s66.7,3.9,100,8.2s66.7,5.7,100,5.5
	s66.7-1.8,100,0.8c33.3,2.7,66.7,9.7,100,12c33.3,2.4,66.7,0,100-2s66.7-3.6,100-5c33.3-1.3,66.7-2.3,83.3-2.8L900,389v62h-16.7
	c-16.6,0-50,0-83.3,0s-66.7,0-100,0s-66.7,0-100,0s-66.7,0-100,0s-66.7,0-100,0s-66.7,0-100,0s-66.7,0-100,0s-66.7,0-100,0
	s-66.7,0-83.3,0H0V410z"/>
<path class="st5" d="M0,427l16.7-3.3c16.6-3.4,50-10,83.3-9.9c33.3,0.2,66.7,7.2,100,9.9c33.3,2.6,66.7,1,100,1.6
	c33.3,0.7,66.7,3.7,100,3c33.3-0.6,66.7-5,100-11.3s66.7-14.7,100-17.5s66.7-0.2,100,3.8s66.7,9.4,100,8.4s66.7-8.4,83.3-12L900,396
	v55h-16.7c-16.6,0-50,0-83.3,0s-66.7,0-100,0s-66.7,0-100,0s-66.7,0-100,0s-66.7,0-100,0s-66.7,0-100,0s-66.7,0-100,0s-66.7,0-100,0
	s-66.7,0-83.3,0H0V427z"/>
<text transform="matrix(1 0 0 1 256 215)" class="st6 st7 st8">Hsin-Ying Lee</text>
</svg>
