<?xml version="1.0" standalone="no"?>
<!DOCTYPE svg PUBLIC "-//W3C//DTD SVG 20010904//EN"
 "http://www.w3.org/TR/2001/REC-SVG-20010904/DTD/svg10.dtd">
<svg version="1.0" xmlns="http://www.w3.org/2000/svg"
 width="877.000000pt" height="877.000000pt" viewBox="0 0 877.000000 877.000000"
 preserveAspectRatio="xMidYMid meet">
<metadata>
Created by potrace 1.14, written by Peter Selinger 2001-2017
</metadata>
<g transform="translate(0.000000,877.000000) scale(0.100000,-0.100000)"
fill="#000000" stroke="none">
<path d="M4562 7877 c-23 -11 -52 -73 -52 -115 0 -34 -17 -64 -23 -42 -23 75
-35 95 -61 105 -20 7 -34 6 -54 -6 -33 -18 -40 -67 -19 -139 8 -28 12 -50 8
-50 -4 0 -19 25 -34 55 -44 90 -108 110 -145 45 -13 -23 -22 -28 -37 -23 -53
17 -89 -8 -89 -61 0 -27 -3 -33 -12 -25 -25 21 -77 6 -99 -27 -17 -27 -25 -31
-51 -27 -25 4 -35 0 -52 -22 -12 -15 -22 -34 -22 -41 0 -10 -9 -12 -30 -7 -24
4 -37 0 -55 -17 -14 -13 -25 -29 -25 -37 0 -8 -11 -13 -28 -13 -32 0 -72 -36
-72 -64 0 -9 7 -31 16 -49 16 -31 16 -32 -2 -15 -33 29 -67 31 -97 8 -28 -22
-38 -72 -17 -85 17 -10 11 -23 -8 -18 -28 7 -72 -14 -81 -39 -10 -27 3 -66 27
-84 15 -12 15 -13 1 -14 -42 -1 -65 -76 -33 -111 12 -14 13 -21 3 -37 -29 -46
24 -102 83 -87 25 6 25 6 37 -84 19 -150 56 -275 116 -393 30 -59 55 -111 55
-116 0 -5 -13 -15 -30 -22 -32 -13 -45 -39 -35 -71 7 -20 12 -21 63 -16 49 5
60 3 79 -15 l22 -21 -40 -45 c-51 -58 -74 -133 -65 -214 16 -152 126 -252 278
-253 55 0 68 -3 68 -16 0 -33 42 -136 77 -188 45 -69 119 -148 155 -167 29
-15 53 -11 62 12 9 23 -2 39 -55 84 -59 50 -114 120 -165 214 -37 67 -37 68
-20 98 14 23 15 32 5 44 -10 12 -28 14 -94 8 -67 -5 -87 -3 -116 11 -80 41
-112 93 -112 180 0 75 28 134 84 175 83 60 155 63 206 10 15 -17 33 -30 39
-30 15 0 44 72 44 110 0 28 2 30 39 30 22 0 46 3 55 6 11 4 16 0 16 -15 0 -22
30 -45 72 -55 38 -9 64 -40 84 -98 10 -31 36 -70 71 -108 94 -102 218 -145
347 -121 160 30 254 138 272 316 8 80 18 87 112 83 l67 -3 5 -60 c4 -46 1 -63
-10 -73 -13 -11 -11 -16 16 -40 69 -60 76 -130 17 -153 -29 -11 -63 1 -136 48
-33 21 -60 9 -65 -29 -6 -48 122 -109 200 -94 38 7 98 57 98 80 0 8 22 2 62
-18 57 -28 71 -31 160 -31 114 0 106 14 83 -140 -42 -277 -162 -460 -372 -564
-189 -94 -435 -79 -636 40 -65 38 -69 40 -92 25 -42 -28 -42 -56 -1 -92 56
-48 170 -101 271 -125 73 -17 110 -20 200 -16 61 2 118 8 128 12 13 5 17 2 17
-12 0 -41 68 -159 122 -212 l56 -54 -33 -96 c-71 -211 -123 -272 -255 -301
-90 -20 -472 -7 -582 18 -177 42 -329 127 -422 235 -35 41 -146 216 -146 230
0 1 18 3 39 3 113 5 265 159 314 319 24 80 28 112 13 125 -11 9 -17 3 -26 -27
-50 -153 -158 -274 -284 -316 -37 -13 -53 -14 -63 -6 -17 15 -168 4 -323 -22
-269 -46 -759 -169 -854 -214 -57 -27 -179 -126 -681 -555 -165 -140 -416
-354 -557 -474 -200 -168 -258 -223 -258 -241 0 -12 7 -26 16 -29 13 -5 0 -19
-52 -58 -78 -58 -347 -324 -479 -473 -168 -190 -166 -225 25 -510 258 -385
516 -674 803 -902 175 -140 205 -159 225 -146 9 5 18 21 20 35 2 20 -8 32 -60
68 -333 230 -667 596 -974 1065 -93 143 -102 171 -75 228 26 52 175 220 501
562 52 55 96 102 97 104 3 5 106 -91 191 -179 90 -93 187 -211 254 -310 47
-70 49 -75 31 -88 -10 -7 -73 -51 -140 -98 -117 -81 -153 -114 -153 -141 0
-20 31 -44 50 -38 14 4 26 -7 50 -47 95 -155 403 -539 569 -711 187 -193 445
-407 491 -407 24 0 40 21 40 51 0 22 -13 37 -72 80 -202 146 -404 346 -713
709 -115 134 -236 271 -269 303 -50 49 -57 60 -45 71 8 8 54 45 102 85 l88 71
50 -40 c28 -22 58 -40 67 -40 28 0 119 38 302 125 272 130 711 305 765 305 14
0 24 -58 52 -310 14 -123 17 -241 17 -570 0 -452 -17 -718 -49 -780 -21 -41
-8 -75 32 -91 19 -7 364 -11 1088 -13 917 -2 1084 -4 1235 -19 197 -20 439
-23 469 -7 11 5 22 18 25 27 5 16 20 18 128 18 104 0 123 2 126 16 4 21 -58
39 -155 46 -40 3 -76 9 -78 14 -7 10 41 43 84 57 47 17 97 15 126 -4 13 -9 29
-13 35 -9 6 3 27 -4 46 -16 36 -22 36 -22 25 -1 -6 11 -15 23 -20 27 -6 3 -7
20 -4 38 4 26 -1 40 -21 64 -21 25 -28 48 -37 129 -15 124 -15 519 0 684 13
142 50 438 57 459 3 8 18 -4 43 -35 21 -26 73 -75 116 -108 43 -34 93 -81 110
-106 40 -57 71 -69 122 -47 70 30 95 26 138 -21 l38 -43 -30 -42 c-17 -23 -44
-69 -61 -103 -45 -90 -214 -519 -299 -759 -96 -270 -99 -281 -83 -300 18 -22
47 -18 64 8 54 83 366 938 417 1143 10 40 15 45 33 39 12 -3 51 -11 88 -17 81
-14 121 -2 116 34 -4 29 -42 48 -98 48 -53 0 -114 16 -147 37 -23 15 -22 16
47 49 196 94 311 219 355 385 8 30 15 68 15 84 0 41 153 -315 180 -421 31
-120 29 -243 -8 -369 -55 -189 -175 -440 -372 -775 -123 -208 -144 -253 -136
-286 8 -30 49 -48 76 -34 45 24 146 175 289 433 212 381 304 640 304 857 0
155 -28 231 -161 430 -57 85 -117 169 -133 185 -23 25 -29 40 -29 75 -1 25 -7
61 -14 80 -7 19 -95 157 -196 305 -101 149 -266 394 -367 546 -100 152 -202
297 -226 321 -71 71 -569 324 -784 398 -88 31 -93 31 -124 16 l-33 -16 -41 40
c-41 40 -98 127 -109 165 -5 17 4 24 57 44 147 56 312 205 381 344 50 101 83
240 97 405 8 87 17 143 26 153 36 42 54 135 77 385 6 64 -8 85 -65 99 l-43 11
-18 87 c-34 172 -108 356 -193 483 -25 37 -45 69 -45 71 0 3 27 -19 59 -50 33
-30 71 -57 85 -61 55 -14 90 36 67 93 -14 32 -68 86 -126 125 -38 26 -39 27
-10 21 17 -4 59 -20 94 -36 98 -45 151 -36 151 24 0 42 -38 81 -106 107 -56
22 -48 25 23 9 58 -13 98 -1 115 36 16 35 -3 72 -45 89 -17 8 -81 22 -141 32
-85 13 -104 19 -86 26 52 19 63 65 25 103 -21 21 -33 25 -89 25 -35 0 -100 -7
-143 -15 -43 -8 -82 -15 -88 -15 -24 1 25 20 87 36 72 17 98 39 98 81 0 26
-35 53 -70 53 -14 0 -64 -18 -111 -41 -71 -34 -81 -37 -63 -17 50 54 55 88 19
123 -37 38 -60 31 -132 -37 l-65 -63 33 53 c31 51 32 55 18 80 -18 32 -53 52
-81 44 -11 -2 -33 -23 -49 -46 -45 -62 -60 -78 -66 -72 -4 3 3 16 15 29 30 31
28 72 -4 104 -20 20 -31 24 -56 19 -43 -9 -53 -19 -79 -84 -12 -31 -26 -61
-30 -66 -16 -18 -20 2 -8 46 16 59 7 92 -32 108 -27 11 -33 11 -56 -7 -15 -10
-32 -35 -39 -54 -11 -30 -13 -31 -13 -9 -2 54 -51 88 -99 67z m95 -119 c-3 -8
-6 -5 -6 6 -1 11 2 17 5 13 3 -3 4 -12 1 -19z m-10 -40 c-3 -8 -6 -5 -6 6 -1
11 2 17 5 13 3 -3 4 -12 1 -19z m773 -368 c14 -10 22 -22 18 -26 -11 -10 -68
16 -68 32 0 19 20 17 50 -6z m-1550 -98 c20 -13 22 -17 8 -20 -22 -4 -88 24
-88 39 0 14 46 4 80 -19z m1327 -38 c34 -14 45 -34 19 -34 -28 0 -107 40 -101
50 7 11 24 8 82 -16z m-159 -171 c16 -21 50 -70 76 -110 65 -101 105 -125 148
-86 28 26 23 74 -16 132 -41 61 -29 55 78 -33 89 -75 115 -86 151 -62 50 33
26 97 -57 158 l-51 37 39 -5 c60 -9 60 -8 124 -95 65 -88 135 -223 170 -329
24 -72 62 -252 54 -259 -3 -3 -24 1 -47 8 -120 36 -120 36 -210 7 -47 -14
-107 -26 -134 -26 -51 0 -72 -13 -86 -52 -7 -19 -47 -25 -47 -8 0 5 -11 16
-23 25 -20 13 -35 14 -100 3 -69 -10 -82 -10 -152 11 -84 25 -116 25 -305 -3
-100 -14 -191 -39 -242 -67 -34 -19 -104 -31 -183 -33 l-70 -1 3 39 c2 22 10
49 17 60 26 40 65 174 71 244 5 49 1 106 -11 183 l-18 112 24 18 c84 66 489
161 711 167 54 2 58 0 86 -35z m-1223 -13 c8 -13 -12 -20 -63 -23 -49 -2 -57
15 -10 24 52 10 66 10 73 -1z m195 -74 c-12 -20 -26 -36 -31 -36 -16 0 -9 37
12 64 31 40 45 18 19 -28z m1760 -693 c0 -25 -1 -26 -16 -11 -9 9 -13 21 -10
27 13 20 26 11 26 -16z m-782 -67 c5 -22 -24 -20 -48 4 -11 11 -27 20 -35 20
-8 0 -15 6 -15 14 0 20 94 -16 98 -38z m962 -2746 c-31 -4 -85 -17 -120 -29
-84 -30 -145 -29 -218 0 l-57 24 115 6 c180 8 347 8 280 -1z m-640 -14 c0 -4
-28 -20 -62 -36 -71 -34 -142 -40 -152 -14 -18 46 -12 49 104 52 61 2 110 1
110 -2z m262 -52 c118 -46 166 -47 275 -5 45 18 98 35 118 38 l35 6 0 -71 0
-72 -26 10 c-43 17 -65 12 -164 -35 -52 -25 -109 -45 -125 -45 -19 0 -58 17
-102 44 -130 81 -178 81 -259 0 -73 -74 -109 -80 -189 -33 -28 17 -35 27 -35
53 0 31 1 32 63 43 36 7 98 31 147 57 107 57 139 58 262 10z m-22 -174 c116
-69 144 -69 275 -4 92 45 122 52 156 34 16 -9 19 -22 19 -74 l0 -64 -43 5
c-32 4 -63 -3 -132 -30 -161 -62 -193 -61 -273 7 -76 65 -90 66 -198 10 -85
-43 -96 -47 -145 -41 -30 3 -66 11 -81 18 -24 11 -28 18 -28 56 0 23 2 43 5
43 4 0 20 -7 37 -16 40 -21 121 -21 152 0 14 8 45 36 69 61 58 59 79 58 187
-5z m-30 -174 c89 -76 157 -78 313 -11 45 20 101 39 125 42 47 6 49 4 36 -90
-6 -43 -8 -45 -31 -36 -31 12 -88 -1 -183 -42 -102 -43 -169 -39 -255 14 -99
61 -117 63 -203 22 -55 -26 -87 -35 -126 -35 -90 0 -96 5 -96 65 l0 53 47 -14
c81 -25 123 -19 215 30 46 25 88 45 95 45 6 1 35 -19 63 -43z m-32 -166 c123
-75 187 -77 328 -12 59 27 105 42 131 42 l40 0 -8 -47 c-4 -27 -8 -53 -8 -59
-1 -6 -23 -14 -49 -18 -27 -3 -87 -20 -133 -38 -63 -23 -102 -31 -155 -32 -64
-1 -76 2 -125 33 -123 78 -143 80 -243 27 -64 -34 -114 -44 -150 -30 -12 5
-16 20 -16 58 l0 51 88 0 c79 0 93 3 147 32 33 18 66 32 73 33 7 0 43 -18 80
-40z m-29 -170 c76 -45 143 -63 204 -54 23 4 97 27 165 52 67 25 125 42 129
39 3 -4 1 -25 -6 -47 -13 -43 -39 -62 -101 -74 -19 -3 -70 -20 -112 -36 -105
-41 -142 -39 -244 11 -113 55 -147 59 -235 24 -70 -27 -71 -27 -110 -10 -29
14 -39 24 -39 42 0 21 5 23 44 23 50 0 117 21 155 50 39 29 77 25 150 -20z
m11 -157 c53 -26 94 -38 138 -42 l63 -6 -55 -33 -54 -32 -143 60 c-78 33 -145
62 -147 65 -9 9 43 24 83 24 28 1 65 -11 115 -36z"/>
<path d="M3920 5922 c0 -5 14 -15 30 -22 17 -7 53 -38 80 -68 49 -55 73 -62
87 -27 7 20 -47 78 -91 99 -42 20 -106 31 -106 18z"/>
<path d="M5094 5625 c-4 -9 -4 -31 -1 -50 13 -81 98 -141 190 -133 109 9 190
106 130 155 -19 15 -54 3 -96 -33 -27 -23 -38 -25 -81 -21 -45 4 -55 10 -93
52 -34 37 -44 44 -49 30z"/>
</g>
</svg>
